<svg width="820" height="566" viewBox="0 0 820 566" fill="none" xmlns="http://www.w3.org/2000/svg">
<g clip-path="url(#clip0)">
<path opacity="0.1" d="M463.816 77.0581C411.255 77.1284 360.663 62.2312 312.272 45.682C263.88 29.1327 215.862 10.6009 164.278 2.74812C131.103 -2.29961 93.3791 -1.83562 67.4467 16.4923C42.4847 34.1242 35.2562 63.3069 31.7685 90.268C29.1458 110.55 27.9363 131.838 37.7594 150.391C44.5801 163.27 56.2525 173.886 64.4794 186.161C93.1963 228.863 75.9268 283.411 48.0185 327.104C34.9328 347.604 19.6039 367.254 9.71053 388.928C-0.182885 410.602 -4.2401 435.18 5.8502 456.573C15.8491 477.776 38.4345 493.166 62.6723 503.676C111.893 525.062 169.2 529.646 224.968 531.41C348.414 535.326 472.099 527.34 595.454 519.353C641.103 516.401 686.956 513.427 731.662 504.871C756.484 500.126 782.044 493.081 799.644 477.643C821.983 458.042 826.553 426.041 810.296 403.038C783.035 364.456 711.151 357.179 691.604 315.433C680.824 292.452 690.12 266.095 703.81 243.943C733.174 196.411 783.717 153.836 784.568 100.673C785.151 64.1646 758.868 28.5492 719.61 12.6819C678.462 -3.93767 622.357 0.336737 593.527 31.3121C563.882 63.2225 510.224 77.0089 463.816 77.0581Z" fill="url(#paint0_linear)"/>
<path d="M697.903 453.706C697.903 453.706 689.262 448.004 680.697 452.06C680.697 452.06 683.334 457.136 694.177 456.658L697.903 453.706Z" fill="url(#paint1_linear)"/>
<path d="M699.002 454.008C699.002 454.008 701.632 464.019 695.036 470.831C695.036 470.831 691.07 466.704 695.036 456.595L699.002 454.008Z" fill="url(#paint2_linear)"/>
<path d="M709.744 444.398C709.744 444.398 709.104 435.884 689.873 438.711C689.873 438.711 689.782 444.201 696.532 446.802C703.282 449.404 706.376 447.21 709.744 444.398Z" fill="url(#paint3_linear)"/>
<path d="M710.955 444.342C710.955 444.342 719.083 446.95 711.834 464.983C711.834 464.983 706.469 463.788 705.505 456.61C704.542 449.432 707.397 446.957 710.955 444.342Z" fill="url(#paint4_linear)"/>
<path d="M721.812 432.264C721.812 432.264 722.916 418.253 703.262 419.687C703.262 419.687 701.856 432.342 718.345 435.632L721.812 432.264Z" fill="url(#paint5_linear)"/>
<path d="M734.798 416.444C734.798 416.444 732.105 400.563 712.459 405.294C712.459 405.294 712.389 419.025 731.592 420.227L734.798 416.444Z" fill="url(#paint6_linear)"/>
<path d="M744.292 400.094C744.292 400.094 739.778 384.627 720.314 389.253C720.314 389.253 724.948 403.166 742.998 402.948L744.292 400.094Z" fill="url(#paint7_linear)"/>
<path d="M753.306 384.12C753.306 384.12 748.897 368.069 730.102 372.871C730.102 372.871 736.374 388.12 752.061 386.833L753.306 384.12Z" fill="url(#paint8_linear)"/>
<path d="M759.113 368.949C759.113 368.949 755.724 349.32 738.201 353.665C738.201 353.665 743.292 371.522 757.826 371.81L759.113 368.949Z" fill="url(#paint9_linear)"/>
<path d="M764.563 350.621C764.563 350.621 760.492 330.838 742.766 336.56C742.766 336.56 749.713 355.261 763.305 353.328L764.563 350.621Z" fill="url(#paint10_linear)"/>
<path d="M767.911 333.565C767.911 333.565 761.449 313.775 747.744 314.309C747.744 314.309 754.347 335.21 766.765 337.509L767.911 333.565Z" fill="url(#paint11_linear)"/>
<path d="M770.076 316.918C770.076 316.918 763.045 293.099 751.893 294.934C751.893 294.934 756.758 313.142 769.682 320.63L770.076 316.918Z" fill="url(#paint12_linear)"/>
<path d="M771.3 297.058C771.3 297.058 764.704 277.211 753.721 276.417C753.721 276.417 758.207 295.947 771.082 302.218L771.3 297.058Z" fill="url(#paint13_linear)"/>
<path d="M772.63 278.526C772.63 278.526 764.41 258.658 757.16 258.208C757.16 258.208 760.732 277.773 771.926 281.788L772.63 278.526Z" fill="url(#paint14_linear)"/>
<path d="M773.536 261.288C773.536 261.288 768.48 239.712 761.217 237.919C761.217 237.919 762.208 255.572 772.805 262.905L773.536 261.288Z" fill="url(#paint15_linear)"/>
<path d="M776.278 238.706C776.278 238.706 770.962 221.503 765.076 218.881C765.076 218.881 766.236 239.163 774.92 242.91L776.278 238.706Z" fill="url(#paint16_linear)"/>
<path d="M778.55 223.942L779.618 193.613C779.618 193.613 768.614 216.476 777.755 229.264L778.55 223.942Z" fill="url(#paint17_linear)"/>
<path d="M787.043 193.775C787.043 193.775 794.967 171.63 796.887 170.393C796.887 170.393 781.347 184.762 782.866 203.245L787.043 193.775Z" fill="url(#paint18_linear)"/>
<path d="M722.345 432.159C722.345 432.159 736.282 430.338 735.867 450.03C735.867 450.03 723.274 452.082 719.16 435.793L722.345 432.159Z" fill="url(#paint19_linear)"/>
<path d="M735.459 415.911C735.459 415.911 751.562 415.862 750.226 436.018C750.226 436.018 736.704 438.436 732.246 419.722L735.459 415.911Z" fill="url(#paint20_linear)"/>
<path d="M744.446 401.393C744.446 401.393 759.065 394.539 768.417 412.234C768.417 412.234 754.916 417.942 743.152 404.254L744.446 401.393Z" fill="url(#paint21_linear)"/>
<path d="M753.628 384.267C753.628 384.267 768.598 376.977 777.388 394.257C777.388 394.257 761.792 399.628 752.391 387.002L753.628 384.267Z" fill="url(#paint22_linear)"/>
<path d="M758.923 369.378C758.923 369.378 773.33 355.62 784.827 369.532C784.827 369.532 770.11 380.858 758.262 372.443L758.923 369.378Z" fill="url(#paint23_linear)"/>
<path d="M763.747 350.15C763.747 350.15 778.239 336.089 789.644 350.796C789.644 350.796 773.38 362.347 763.227 353.102L763.747 350.15Z" fill="url(#paint24_linear)"/>
<path d="M766.455 333.003C766.455 333.003 777.621 315.427 790.77 319.35C790.77 319.35 779.182 337.959 766.582 337.13L766.455 333.003Z" fill="url(#paint25_linear)"/>
<path d="M769.745 316.805C769.745 316.805 780.996 294.674 791.642 298.527C791.642 298.527 783.527 315.54 769.457 320.538L769.745 316.805Z" fill="url(#paint26_linear)"/>
<path d="M770.525 295.904C770.525 295.904 782.092 278.483 792.928 280.613C792.928 280.613 783.471 298.28 769.4 300.945L770.525 295.904Z" fill="url(#paint27_linear)"/>
<path d="M771.426 278.139C771.426 278.139 780.391 258.588 787.676 258.454C787.676 258.454 783.372 277.865 772.03 281.457L771.426 278.139Z" fill="url(#paint28_linear)"/>
<path d="M773.184 260.866C773.184 260.866 783.147 241.069 790.636 241.026C790.636 241.026 785.538 257.955 773.514 262.602L773.184 260.866Z" fill="url(#paint29_linear)"/>
<path d="M774.682 239.943C774.682 239.943 782.135 223.562 788.309 221.706C788.309 221.706 784.582 241.672 775.504 244.287L774.682 239.943Z" fill="url(#paint30_linear)"/>
<path d="M779.435 223.346L796.093 197.974C796.093 197.974 791.825 223.001 777.002 228.204L779.435 223.346Z" fill="url(#paint31_linear)"/>
<path d="M790.868 195.821C790.868 195.821 810.226 182.464 810.929 180.306C810.929 180.306 801.085 199.013 782.803 202.317L790.868 195.821Z" fill="url(#paint32_linear)"/>
<path d="M792.029 189.811C792.029 189.811 814.255 168.446 819.93 168.467C819.93 168.467 801.599 169.303 791.494 188.672L792.029 189.811Z" fill="url(#paint33_linear)"/>
<path d="M774.9 243.114L775.709 243.219C779.886 210.536 785.975 191.195 792.852 188.826L792.585 188.053C785.293 190.584 779.162 209.629 774.9 243.114Z" fill="#444053"/>
<path d="M768.754 321.275L769.977 321.374C770.238 318.323 770.435 315.201 770.568 312.087C771.735 285.034 773.542 260.189 775.919 241.566L775.216 240.688C772.832 259.353 770.512 284.943 769.345 312.038C769.211 315.131 769.014 318.238 768.754 321.275Z" fill="#444053"/>
<path d="M675.094 469.299C675.305 469.207 696.842 459.59 719.196 436.657C732.292 423.226 743.174 407.802 751.435 390.96C761.772 369.919 768.072 344.062 770.182 318.942L768.909 319.54C764.163 375.923 738.49 414.449 718.078 435.434C695.942 458.163 674.644 467.682 674.433 467.773L675.094 469.299Z" fill="#444053"/>
<path d="M730.861 59.9189H55.2124C53.616 59.9189 52.0851 60.553 50.9563 61.6815C49.8275 62.8101 49.1934 64.3408 49.1934 65.9369V83.4704H736.88V65.9369C736.88 64.3408 736.246 62.8101 735.117 61.6815C733.989 60.553 732.458 59.9189 730.861 59.9189Z" fill="#3F3D56"/>
<path d="M49.1934 83.4697V478.037C49.1934 481.255 50.472 484.341 52.7481 486.617C55.0241 488.892 58.111 490.171 61.3298 490.171H724.744C727.963 490.171 731.05 488.892 733.326 486.617C735.602 484.341 736.88 481.255 736.88 478.037V83.4697H49.1934Z" fill="white"/>
<path opacity="0.8" d="M60.0851 74.3303C61.6385 74.3303 62.8977 73.0713 62.8977 71.5182C62.8977 69.9651 61.6385 68.7061 60.0851 68.7061C58.5317 68.7061 57.2725 69.9651 57.2725 71.5182C57.2725 73.0713 58.5317 74.3303 60.0851 74.3303Z" fill="#FA5959"/>
<path opacity="0.8" d="M67.8195 74.3303C69.3728 74.3303 70.6321 73.0713 70.6321 71.5182C70.6321 69.9651 69.3728 68.7061 67.8195 68.7061C66.2661 68.7061 65.0068 69.9651 65.0068 71.5182C65.0068 73.0713 66.2661 74.3303 67.8195 74.3303Z" fill="#FED253"/>
<path opacity="0.8" d="M75.5538 74.3303C77.1072 74.3303 78.3665 73.0713 78.3665 71.5182C78.3665 69.9651 77.1072 68.7061 75.5538 68.7061C74.0005 68.7061 72.7412 69.9651 72.7412 71.5182C72.7412 73.0713 74.0005 74.3303 75.5538 74.3303Z" fill="#8CCF4D"/>
<path opacity="0.05" d="M665.798 149.261H113.117V392.241H665.798V149.261Z" fill="black"/>
<path d="M661.579 151.102H117.336V388.725H661.579V151.102Z" fill="#E3E5F1"/>
<path d="M265.702 212.258C254.993 212.258 244.525 215.433 235.621 221.381C226.718 227.329 219.778 235.784 215.68 245.675C211.582 255.567 210.51 266.451 212.599 276.952C214.688 287.453 219.845 297.098 227.417 304.669C234.989 312.239 244.636 317.395 255.139 319.484C265.642 321.573 276.528 320.501 286.421 316.403C296.315 312.306 304.771 305.368 310.72 296.466C316.669 287.563 319.845 277.097 319.845 266.391C319.845 259.282 318.444 252.243 315.723 245.675C313.002 239.107 309.014 233.14 303.987 228.113C298.959 223.086 292.99 219.099 286.421 216.378C279.852 213.658 272.812 212.258 265.702 212.258ZM275.412 267.692V293.324H256.272V267.692C253.624 265.687 251.672 262.901 250.692 259.728C249.712 256.554 249.754 253.153 250.811 250.005C251.868 246.856 253.888 244.119 256.585 242.18C259.282 240.241 262.52 239.198 265.842 239.198C269.164 239.198 272.402 240.241 275.099 242.18C277.796 244.119 279.816 246.856 280.874 250.005C281.931 253.153 281.973 256.554 280.993 259.728C280.013 262.901 278.061 265.687 275.412 267.692Z" fill="url(#paint34_linear)"/>
<path opacity="0.05" d="M265.702 212.258C254.993 212.258 244.525 215.433 235.621 221.381C226.718 227.329 219.778 235.784 215.68 245.675C211.582 255.567 210.51 266.451 212.599 276.952C214.688 287.453 219.845 297.098 227.417 304.669C234.989 312.239 244.636 317.395 255.139 319.484C265.642 321.573 276.528 320.501 286.421 316.403C296.315 312.306 304.771 305.368 310.72 296.466C316.669 287.563 319.845 277.097 319.845 266.391C319.845 259.282 318.444 252.243 315.723 245.675C313.002 239.107 309.014 233.14 303.987 228.113C298.959 223.086 292.99 219.099 286.421 216.378C279.852 213.658 272.812 212.258 265.702 212.258ZM275.412 267.692V293.324H256.272V267.692C253.624 265.687 251.672 262.901 250.692 259.728C249.712 256.554 249.754 253.153 250.811 250.005C251.868 246.856 253.888 244.119 256.585 242.18C259.282 240.241 262.52 239.198 265.842 239.198C269.164 239.198 272.402 240.241 275.099 242.18C277.796 244.119 279.816 246.856 280.874 250.005C281.931 253.153 281.973 256.554 280.993 259.728C280.013 262.901 278.061 265.687 275.412 267.692Z" fill="black"/>
<path d="M265.701 196.791C251.933 196.791 238.474 200.873 227.027 208.521C215.579 216.168 206.657 227.038 201.388 239.756C196.119 252.474 194.74 266.468 197.426 279.969C200.112 293.47 206.742 305.871 216.478 315.605C226.213 325.339 238.617 331.967 252.121 334.653C265.624 337.338 279.621 335.96 292.341 330.692C305.061 325.425 315.933 316.504 323.582 305.058C331.231 293.613 335.314 280.156 335.314 266.391C335.314 247.932 327.98 230.229 314.925 217.176C301.87 204.124 284.164 196.791 265.701 196.791ZM278.182 268.064V301.015H253.572V268.064C250.165 265.486 247.654 261.904 246.394 257.823C245.133 253.741 245.186 249.367 246.546 245.318C247.906 241.268 250.503 237.748 253.972 235.254C257.44 232.76 261.605 231.419 265.877 231.419C270.149 231.419 274.314 232.76 277.782 235.254C281.251 237.748 283.849 241.268 285.208 245.318C286.568 249.367 286.621 253.741 285.361 257.823C284.1 261.904 281.589 265.486 278.182 268.064Z" fill="url(#paint35_linear)"/>
<path d="M589.154 257.259H364.144V281.162H589.154V257.259Z" fill="white"/>
<path d="M589.153 300.847H540.636V324.75H589.153V300.847Z" fill="url(#paint36_linear)"/>
<path d="M386.293 268.851H382.222L385.843 265.237C385.908 265.17 385.944 265.081 385.944 264.988C385.944 264.895 385.908 264.805 385.843 264.738C385.811 264.705 385.772 264.679 385.729 264.661C385.686 264.643 385.64 264.634 385.594 264.634C385.547 264.634 385.501 264.643 385.459 264.661C385.416 264.679 385.377 264.705 385.344 264.738L381.723 268.359V264.281C381.723 264.188 381.686 264.099 381.62 264.033C381.554 263.967 381.465 263.93 381.371 263.93C381.279 263.931 381.19 263.969 381.125 264.035C381.059 264.1 381.022 264.189 381.02 264.281V268.359L377.406 264.717C377.373 264.684 377.334 264.658 377.291 264.64C377.248 264.622 377.202 264.613 377.156 264.613C377.109 264.613 377.064 264.622 377.021 264.64C376.978 264.658 376.939 264.684 376.906 264.717C376.841 264.784 376.805 264.873 376.805 264.967C376.805 265.06 376.841 265.149 376.906 265.216L380.528 268.83H376.449C376.357 268.832 376.268 268.869 376.203 268.935C376.137 269 376.099 269.089 376.098 269.181C376.098 269.275 376.135 269.364 376.201 269.43C376.267 269.496 376.356 269.533 376.449 269.533H380.528L376.906 273.153C376.841 273.22 376.805 273.31 376.805 273.403C376.805 273.496 376.841 273.586 376.906 273.653C376.974 273.716 377.063 273.751 377.156 273.751C377.249 273.751 377.338 273.716 377.406 273.653L381.02 270.032V274.103C381.02 274.196 381.057 274.285 381.123 274.351C381.189 274.417 381.278 274.454 381.371 274.454C381.465 274.454 381.554 274.417 381.62 274.351C381.686 274.285 381.723 274.196 381.723 274.103V270.032L385.344 273.653C385.412 273.716 385.501 273.751 385.594 273.751C385.686 273.751 385.776 273.716 385.843 273.653C385.908 273.586 385.944 273.496 385.944 273.403C385.944 273.31 385.908 273.22 385.843 273.153L382.222 269.533H386.293C386.387 269.533 386.476 269.496 386.542 269.43C386.608 269.364 386.645 269.275 386.645 269.181C386.64 269.092 386.6 269.008 386.535 268.946C386.469 268.885 386.383 268.851 386.293 268.851Z" fill="url(#paint37_linear)"/>
<path d="M401.059 268.851H396.988L400.609 265.237C400.674 265.17 400.71 265.081 400.71 264.988C400.71 264.895 400.674 264.805 400.609 264.738C400.576 264.705 400.537 264.679 400.495 264.661C400.452 264.643 400.406 264.634 400.359 264.634C400.313 264.634 400.267 264.643 400.224 264.661C400.181 264.679 400.142 264.705 400.11 264.738L396.489 268.359V264.281C396.489 264.188 396.451 264.099 396.386 264.033C396.32 263.967 396.23 263.93 396.137 263.93C396.044 263.931 395.956 263.969 395.89 264.035C395.825 264.1 395.787 264.189 395.785 264.281V268.359L392.171 264.717C392.138 264.684 392.1 264.658 392.057 264.64C392.014 264.622 391.968 264.613 391.921 264.613C391.875 264.613 391.829 264.622 391.786 264.64C391.743 264.658 391.705 264.684 391.672 264.717C391.607 264.784 391.571 264.873 391.571 264.967C391.571 265.06 391.607 265.149 391.672 265.216L395.293 268.83H391.215C391.122 268.832 391.034 268.869 390.968 268.935C390.903 269 390.865 269.089 390.863 269.181C390.863 269.275 390.9 269.364 390.966 269.43C391.032 269.496 391.122 269.533 391.215 269.533H395.293L391.672 273.153C391.607 273.22 391.571 273.31 391.571 273.403C391.571 273.496 391.607 273.586 391.672 273.653C391.74 273.716 391.829 273.751 391.921 273.751C392.014 273.751 392.103 273.716 392.171 273.653L395.785 270.032V274.103C395.785 274.196 395.822 274.285 395.888 274.351C395.954 274.417 396.044 274.454 396.137 274.454C396.23 274.454 396.32 274.417 396.386 274.351C396.451 274.285 396.489 274.196 396.489 274.103V270.032L400.11 273.653C400.177 273.716 400.267 273.751 400.359 273.751C400.452 273.751 400.541 273.716 400.609 273.653C400.674 273.586 400.71 273.496 400.71 273.403C400.71 273.31 400.674 273.22 400.609 273.153L396.988 269.533H401.059C401.152 269.533 401.242 269.496 401.308 269.43C401.374 269.364 401.411 269.275 401.411 269.181C401.405 269.092 401.366 269.008 401.3 268.946C401.235 268.885 401.149 268.851 401.059 268.851Z" fill="url(#paint38_linear)"/>
<path d="M415.826 268.851H411.754L415.376 265.237C415.441 265.17 415.477 265.081 415.477 264.988C415.477 264.895 415.441 264.805 415.376 264.738C415.343 264.705 415.304 264.679 415.261 264.661C415.218 264.643 415.172 264.634 415.126 264.634C415.08 264.634 415.034 264.643 414.991 264.661C414.948 264.679 414.909 264.705 414.876 264.738L411.255 268.359V264.281C411.255 264.188 411.218 264.099 411.152 264.033C411.086 263.967 410.997 263.93 410.904 263.93C410.811 263.931 410.722 263.969 410.657 264.035C410.591 264.1 410.554 264.189 410.552 264.281V268.359L406.938 264.717C406.905 264.684 406.866 264.658 406.823 264.64C406.78 264.622 406.735 264.613 406.688 264.613C406.642 264.613 406.596 264.622 406.553 264.64C406.51 264.658 406.471 264.684 406.438 264.717C406.374 264.784 406.337 264.873 406.337 264.967C406.337 265.06 406.374 265.149 406.438 265.216L410.06 268.83H405.981C405.889 268.832 405.8 268.869 405.735 268.935C405.669 269 405.632 269.089 405.63 269.181C405.63 269.275 405.667 269.364 405.733 269.43C405.799 269.496 405.888 269.533 405.981 269.533H410.06L406.438 273.153C406.374 273.22 406.337 273.31 406.337 273.403C406.337 273.496 406.374 273.586 406.438 273.653C406.506 273.716 406.595 273.751 406.688 273.751C406.781 273.751 406.87 273.716 406.938 273.653L410.552 270.032V274.103C410.552 274.196 410.589 274.285 410.655 274.351C410.721 274.417 410.81 274.454 410.904 274.454C410.997 274.454 411.086 274.417 411.152 274.351C411.218 274.285 411.255 274.196 411.255 274.103V270.032L414.876 273.653C414.944 273.716 415.033 273.751 415.126 273.751C415.219 273.751 415.308 273.716 415.376 273.653C415.441 273.586 415.477 273.496 415.477 273.403C415.477 273.31 415.441 273.22 415.376 273.153L411.754 269.533H415.826C415.919 269.533 416.008 269.496 416.074 269.43C416.14 269.364 416.177 269.275 416.177 269.181C416.172 269.092 416.132 269.008 416.067 268.946C416.002 268.885 415.915 268.851 415.826 268.851Z" fill="url(#paint39_linear)"/>
<path d="M430.592 268.851H426.521L430.142 265.237C430.207 265.17 430.243 265.081 430.243 264.988C430.243 264.895 430.207 264.805 430.142 264.738C430.11 264.705 430.071 264.679 430.028 264.661C429.985 264.643 429.939 264.634 429.893 264.634C429.846 264.634 429.8 264.643 429.757 264.661C429.715 264.679 429.676 264.705 429.643 264.738L426.022 268.359V264.281C426.022 264.188 425.985 264.099 425.919 264.033C425.853 263.967 425.763 263.93 425.67 263.93C425.577 263.931 425.489 263.969 425.424 264.035C425.358 264.1 425.32 264.189 425.319 264.281V268.359L421.704 264.717C421.672 264.684 421.633 264.658 421.59 264.64C421.547 264.622 421.501 264.613 421.455 264.613C421.408 264.613 421.362 264.622 421.32 264.64C421.277 264.658 421.238 264.684 421.205 264.717C421.14 264.784 421.104 264.873 421.104 264.967C421.104 265.06 421.14 265.149 421.205 265.216L424.826 268.83H420.748C420.655 268.832 420.567 268.869 420.501 268.935C420.436 269 420.398 269.089 420.396 269.181C420.396 269.275 420.434 269.364 420.499 269.43C420.565 269.496 420.655 269.533 420.748 269.533H424.826L421.205 273.153C421.14 273.22 421.104 273.31 421.104 273.403C421.104 273.496 421.14 273.586 421.205 273.653C421.273 273.716 421.362 273.751 421.455 273.751C421.547 273.751 421.637 273.716 421.704 273.653L425.319 270.032V274.103C425.319 274.196 425.356 274.285 425.422 274.351C425.487 274.417 425.577 274.454 425.67 274.454C425.763 274.454 425.853 274.417 425.919 274.351C425.985 274.285 426.022 274.196 426.022 274.103V270.032L429.643 273.653C429.711 273.716 429.8 273.751 429.893 273.751C429.985 273.751 430.075 273.716 430.142 273.653C430.207 273.586 430.243 273.496 430.243 273.403C430.243 273.31 430.207 273.22 430.142 273.153L426.521 269.533H430.592C430.686 269.533 430.775 269.496 430.841 269.43C430.907 269.364 430.944 269.275 430.944 269.181C430.938 269.092 430.899 269.008 430.834 268.946C430.768 268.885 430.682 268.851 430.592 268.851Z" fill="url(#paint40_linear)"/>
<path d="M445.358 268.851H441.287L444.908 265.237C444.973 265.17 445.009 265.081 445.009 264.988C445.009 264.895 444.973 264.805 444.908 264.738C444.875 264.705 444.836 264.679 444.793 264.661C444.751 264.643 444.705 264.634 444.658 264.634C444.612 264.634 444.566 264.643 444.523 264.661C444.48 264.679 444.441 264.705 444.409 264.738L440.787 268.359V264.281C440.787 264.188 440.75 264.099 440.684 264.033C440.618 263.967 440.529 263.93 440.436 263.93C440.343 263.931 440.255 263.969 440.189 264.035C440.124 264.1 440.086 264.189 440.084 264.281V268.359L436.47 264.717C436.437 264.684 436.398 264.658 436.356 264.64C436.313 264.622 436.267 264.613 436.22 264.613C436.174 264.613 436.128 264.622 436.085 264.64C436.042 264.658 436.003 264.684 435.971 264.717C435.906 264.784 435.87 264.873 435.87 264.967C435.87 265.06 435.906 265.149 435.971 265.216L439.592 268.83H435.514C435.421 268.832 435.333 268.869 435.267 268.935C435.201 269 435.164 269.089 435.162 269.181C435.162 269.275 435.199 269.364 435.265 269.43C435.331 269.496 435.42 269.533 435.514 269.533H439.592L435.971 273.153C435.906 273.22 435.87 273.31 435.87 273.403C435.87 273.496 435.906 273.586 435.971 273.653C436.038 273.716 436.128 273.751 436.22 273.751C436.313 273.751 436.402 273.716 436.47 273.653L440.084 270.032V274.103C440.084 274.196 440.121 274.285 440.187 274.351C440.253 274.417 440.343 274.454 440.436 274.454C440.529 274.454 440.618 274.417 440.684 274.351C440.75 274.285 440.787 274.196 440.787 274.103V270.032L444.409 273.653C444.476 273.716 444.566 273.751 444.658 273.751C444.751 273.751 444.84 273.716 444.908 273.653C444.973 273.586 445.009 273.496 445.009 273.403C445.009 273.31 444.973 273.22 444.908 273.153L441.287 269.533H445.358C445.451 269.533 445.541 269.496 445.607 269.43C445.672 269.364 445.71 269.275 445.71 269.181C445.704 269.092 445.665 269.008 445.599 268.946C445.534 268.885 445.448 268.851 445.358 268.851Z" fill="url(#paint41_linear)"/>
<path d="M460.124 268.851H456.053L459.674 265.237C459.739 265.17 459.776 265.081 459.776 264.988C459.776 264.895 459.739 264.805 459.674 264.738C459.642 264.705 459.603 264.679 459.56 264.661C459.517 264.643 459.471 264.634 459.425 264.634C459.378 264.634 459.332 264.643 459.29 264.661C459.247 264.679 459.208 264.705 459.175 264.738L455.554 268.359V264.281C455.554 264.188 455.517 264.099 455.451 264.033C455.385 263.967 455.296 263.93 455.202 263.93C455.11 263.931 455.021 263.969 454.956 264.035C454.89 264.1 454.853 264.189 454.851 264.281V268.359L451.237 264.717C451.204 264.684 451.165 264.658 451.122 264.64C451.079 264.622 451.033 264.613 450.987 264.613C450.941 264.613 450.895 264.622 450.852 264.64C450.809 264.658 450.77 264.684 450.737 264.717C450.672 264.784 450.636 264.873 450.636 264.967C450.636 265.06 450.672 265.149 450.737 265.216L454.359 268.83H450.28C450.188 268.832 450.099 268.869 450.034 268.935C449.968 269 449.931 269.089 449.929 269.181C449.929 269.275 449.966 269.364 450.032 269.43C450.098 269.496 450.187 269.533 450.28 269.533H454.359L450.737 273.153C450.672 273.22 450.636 273.31 450.636 273.403C450.636 273.496 450.672 273.586 450.737 273.653C450.805 273.716 450.894 273.751 450.987 273.751C451.08 273.751 451.169 273.716 451.237 273.653L454.851 270.032V274.103C454.851 274.196 454.888 274.285 454.954 274.351C455.02 274.417 455.109 274.454 455.202 274.454C455.296 274.454 455.385 274.417 455.451 274.351C455.517 274.285 455.554 274.196 455.554 274.103V270.032L459.175 273.653C459.243 273.716 459.332 273.751 459.425 273.751C459.517 273.751 459.607 273.716 459.674 273.653C459.739 273.586 459.776 273.496 459.776 273.403C459.776 273.31 459.739 273.22 459.674 273.153L456.053 269.533H460.124C460.218 269.533 460.307 269.496 460.373 269.43C460.439 269.364 460.476 269.275 460.476 269.181C460.471 269.092 460.431 269.008 460.366 268.946C460.301 268.885 460.214 268.851 460.124 268.851Z" fill="url(#paint42_linear)"/>
<path d="M474.891 268.851H470.82L474.441 265.237C474.506 265.17 474.542 265.081 474.542 264.988C474.542 264.895 474.506 264.805 474.441 264.738C474.408 264.705 474.369 264.679 474.327 264.661C474.284 264.643 474.238 264.634 474.191 264.634C474.145 264.634 474.099 264.643 474.056 264.661C474.013 264.679 473.974 264.705 473.942 264.738L470.321 268.359V264.281C470.321 264.188 470.283 264.099 470.218 264.033C470.152 263.967 470.062 263.93 469.969 263.93C469.876 263.931 469.788 263.969 469.722 264.035C469.657 264.1 469.619 264.189 469.617 264.281V268.359L466.003 264.717C465.97 264.684 465.932 264.658 465.889 264.64C465.846 264.622 465.8 264.613 465.754 264.613C465.707 264.613 465.661 264.622 465.618 264.64C465.575 264.658 465.537 264.684 465.504 264.717C465.439 264.784 465.403 264.873 465.403 264.967C465.403 265.06 465.439 265.149 465.504 265.216L469.125 268.83H465.047C464.954 268.832 464.866 268.869 464.8 268.935C464.735 269 464.697 269.089 464.695 269.181C464.695 269.275 464.732 269.364 464.798 269.43C464.864 269.496 464.954 269.533 465.047 269.533H469.125L465.504 273.153C465.439 273.22 465.403 273.31 465.403 273.403C465.403 273.496 465.439 273.586 465.504 273.653C465.572 273.716 465.661 273.751 465.754 273.751C465.846 273.751 465.935 273.716 466.003 273.653L469.617 270.032V274.103C469.617 274.196 469.654 274.285 469.72 274.351C469.786 274.417 469.876 274.454 469.969 274.454C470.062 274.454 470.152 274.417 470.218 274.351C470.283 274.285 470.321 274.196 470.321 274.103V270.032L473.942 273.653C474.01 273.716 474.099 273.751 474.191 273.751C474.284 273.751 474.373 273.716 474.441 273.653C474.506 273.586 474.542 273.496 474.542 273.403C474.542 273.31 474.506 273.22 474.441 273.153L470.82 269.533H474.891C474.984 269.533 475.074 269.496 475.14 269.43C475.206 269.364 475.243 269.275 475.243 269.181C475.237 269.092 475.198 269.008 475.132 268.946C475.067 268.885 474.981 268.851 474.891 268.851Z" fill="url(#paint43_linear)"/>
<path d="M489.657 268.851H485.585L489.207 265.237C489.272 265.17 489.308 265.081 489.308 264.988C489.308 264.895 489.272 264.805 489.207 264.738C489.174 264.705 489.135 264.679 489.092 264.661C489.049 264.643 489.003 264.634 488.957 264.634C488.911 264.634 488.865 264.643 488.822 264.661C488.779 264.679 488.74 264.705 488.707 264.738L485.086 268.359V264.281C485.086 264.188 485.049 264.099 484.983 264.033C484.917 263.967 484.828 263.93 484.735 263.93C484.642 263.931 484.554 263.969 484.488 264.035C484.422 264.1 484.385 264.189 484.383 264.281V268.359L480.769 264.717C480.736 264.684 480.697 264.658 480.654 264.64C480.612 264.622 480.566 264.613 480.519 264.613C480.473 264.613 480.427 264.622 480.384 264.64C480.341 264.658 480.302 264.684 480.27 264.717C480.205 264.784 480.168 264.873 480.168 264.967C480.168 265.06 480.205 265.149 480.27 265.216L483.891 268.83H479.813C479.72 268.832 479.631 268.869 479.566 268.935C479.5 269 479.463 269.089 479.461 269.181C479.461 269.275 479.498 269.364 479.564 269.43C479.63 269.496 479.719 269.533 479.813 269.533H483.891L480.27 273.153C480.205 273.22 480.168 273.31 480.168 273.403C480.168 273.496 480.205 273.586 480.27 273.653C480.337 273.716 480.426 273.751 480.519 273.751C480.612 273.751 480.701 273.716 480.769 273.653L484.383 270.032V274.103C484.383 274.196 484.42 274.285 484.486 274.351C484.552 274.417 484.641 274.454 484.735 274.454C484.828 274.454 484.917 274.417 484.983 274.351C485.049 274.285 485.086 274.196 485.086 274.103V270.032L488.707 273.653C488.775 273.716 488.864 273.751 488.957 273.751C489.05 273.751 489.139 273.716 489.207 273.653C489.272 273.586 489.308 273.496 489.308 273.403C489.308 273.31 489.272 273.22 489.207 273.153L485.585 269.533H489.657C489.75 269.533 489.839 269.496 489.905 269.43C489.971 269.364 490.008 269.275 490.008 269.181C490.003 269.092 489.963 269.008 489.898 268.946C489.833 268.885 489.746 268.851 489.657 268.851Z" fill="url(#paint44_linear)"/>
<path d="M504.423 268.851H500.352L503.973 265.237C504.038 265.17 504.074 265.081 504.074 264.988C504.074 264.895 504.038 264.805 503.973 264.738C503.941 264.705 503.902 264.679 503.859 264.661C503.816 264.643 503.77 264.634 503.724 264.634C503.677 264.634 503.631 264.643 503.588 264.661C503.546 264.679 503.507 264.705 503.474 264.738L499.853 268.359V264.281C499.853 264.188 499.816 264.099 499.75 264.033C499.684 263.967 499.594 263.93 499.501 263.93C499.409 263.931 499.32 263.969 499.255 264.035C499.189 264.1 499.151 264.189 499.15 264.281V268.359L495.535 264.717C495.503 264.684 495.464 264.658 495.421 264.64C495.378 264.622 495.332 264.613 495.286 264.613C495.239 264.613 495.193 264.622 495.151 264.64C495.108 264.658 495.069 264.684 495.036 264.717C494.971 264.784 494.935 264.873 494.935 264.967C494.935 265.06 494.971 265.149 495.036 265.216L498.657 268.83H494.579C494.486 268.832 494.398 268.869 494.332 268.935C494.267 269 494.229 269.089 494.228 269.181C494.228 269.275 494.265 269.364 494.33 269.43C494.396 269.496 494.486 269.533 494.579 269.533H498.657L495.036 273.153C494.971 273.22 494.935 273.31 494.935 273.403C494.935 273.496 494.971 273.586 495.036 273.653C495.104 273.716 495.193 273.751 495.286 273.751C495.378 273.751 495.468 273.716 495.535 273.653L499.15 270.032V274.103C499.15 274.196 499.187 274.285 499.253 274.351C499.319 274.417 499.408 274.454 499.501 274.454C499.594 274.454 499.684 274.417 499.75 274.351C499.816 274.285 499.853 274.196 499.853 274.103V270.032L503.474 273.653C503.542 273.716 503.631 273.751 503.724 273.751C503.816 273.751 503.906 273.716 503.973 273.653C504.038 273.586 504.074 273.496 504.074 273.403C504.074 273.31 504.038 273.22 503.973 273.153L500.352 269.533H504.423C504.517 269.533 504.606 269.496 504.672 269.43C504.738 269.364 504.775 269.275 504.775 269.181C504.77 269.092 504.73 269.008 504.665 268.946C504.599 268.885 504.513 268.851 504.423 268.851Z" fill="url(#paint45_linear)"/>
<path d="M519.19 268.851H515.119L518.74 265.237C518.805 265.17 518.841 265.081 518.841 264.988C518.841 264.895 518.805 264.805 518.74 264.738C518.707 264.705 518.668 264.679 518.625 264.661C518.583 264.643 518.537 264.634 518.49 264.634C518.444 264.634 518.398 264.643 518.355 264.661C518.312 264.679 518.273 264.705 518.241 264.738L514.619 268.359V264.281C514.619 264.188 514.582 264.099 514.516 264.033C514.45 263.967 514.361 263.93 514.268 263.93C514.175 263.931 514.087 263.969 514.021 264.035C513.956 264.1 513.918 264.189 513.916 264.281V268.359L510.302 264.717C510.269 264.684 510.23 264.658 510.188 264.64C510.145 264.622 510.099 264.613 510.052 264.613C510.006 264.613 509.96 264.622 509.917 264.64C509.874 264.658 509.835 264.684 509.803 264.717C509.738 264.784 509.702 264.873 509.702 264.967C509.702 265.06 509.738 265.149 509.803 265.216L513.424 268.83H509.346C509.253 268.832 509.165 268.869 509.099 268.935C509.034 269 508.996 269.089 508.994 269.181C508.994 269.275 509.031 269.364 509.097 269.43C509.163 269.496 509.252 269.533 509.346 269.533H513.424L509.803 273.153C509.738 273.22 509.702 273.31 509.702 273.403C509.702 273.496 509.738 273.586 509.803 273.653C509.87 273.716 509.96 273.751 510.052 273.751C510.145 273.751 510.234 273.716 510.302 273.653L513.916 270.032V274.103C513.916 274.196 513.953 274.285 514.019 274.351C514.085 274.417 514.175 274.454 514.268 274.454C514.361 274.454 514.45 274.417 514.516 274.351C514.582 274.285 514.619 274.196 514.619 274.103V270.032L518.241 273.653C518.308 273.716 518.398 273.751 518.49 273.751C518.583 273.751 518.672 273.716 518.74 273.653C518.805 273.586 518.841 273.496 518.841 273.403C518.841 273.31 518.805 273.22 518.74 273.153L515.119 269.533H519.19C519.283 269.533 519.373 269.496 519.438 269.43C519.504 269.364 519.541 269.275 519.541 269.181C519.536 269.092 519.497 269.008 519.431 268.946C519.366 268.885 519.28 268.851 519.19 268.851Z" fill="url(#paint46_linear)"/>
<path d="M533.955 268.851H529.884L533.505 265.237C533.57 265.17 533.607 265.081 533.607 264.988C533.607 264.895 533.57 264.805 533.505 264.738C533.473 264.705 533.434 264.679 533.391 264.661C533.348 264.643 533.302 264.634 533.256 264.634C533.209 264.634 533.163 264.643 533.121 264.661C533.078 264.679 533.039 264.705 533.006 264.738L529.385 268.359V264.281C529.385 264.188 529.348 264.099 529.282 264.033C529.216 263.967 529.127 263.93 529.033 263.93C528.941 263.931 528.852 263.969 528.787 264.035C528.721 264.1 528.684 264.189 528.682 264.281V268.359L525.068 264.717C525.035 264.684 524.996 264.658 524.953 264.64C524.91 264.622 524.864 264.613 524.818 264.613C524.772 264.613 524.726 264.622 524.683 264.64C524.64 264.658 524.601 264.684 524.568 264.717C524.504 264.784 524.467 264.873 524.467 264.967C524.467 265.06 524.504 265.149 524.568 265.216L528.19 268.83H524.111C524.019 268.832 523.93 268.869 523.865 268.935C523.799 269 523.762 269.089 523.76 269.181C523.76 269.275 523.797 269.364 523.863 269.43C523.929 269.496 524.018 269.533 524.111 269.533H528.19L524.568 273.153C524.504 273.22 524.467 273.31 524.467 273.403C524.467 273.496 524.504 273.586 524.568 273.653C524.636 273.716 524.725 273.751 524.818 273.751C524.911 273.751 525 273.716 525.068 273.653L528.682 270.032V274.103C528.682 274.196 528.719 274.285 528.785 274.351C528.851 274.417 528.94 274.454 529.033 274.454C529.127 274.454 529.216 274.417 529.282 274.351C529.348 274.285 529.385 274.196 529.385 274.103V270.032L533.006 273.653C533.074 273.716 533.163 273.751 533.256 273.751C533.348 273.751 533.438 273.716 533.505 273.653C533.57 273.586 533.607 273.496 533.607 273.403C533.607 273.31 533.57 273.22 533.505 273.153L529.884 269.533H533.955C534.049 269.533 534.138 269.496 534.204 269.43C534.27 269.364 534.307 269.275 534.307 269.181C534.302 269.092 534.262 269.008 534.197 268.946C534.132 268.885 534.045 268.851 533.955 268.851Z" fill="url(#paint47_linear)"/>
<path d="M647.157 354.375C647.137 353.525 647.031 352.68 646.841 351.851C646.208 349.475 644.78 346.6 642.432 345.883C640.007 345.14 637.665 344.151 635.442 342.93C635.021 335.394 636.75 327.681 634.866 320.377C634.163 317.705 633.002 315.146 632.693 312.412C632.306 309.009 633.235 305.381 631.877 302.246C630.809 299.771 628.46 298.028 625.936 297.114C623.411 296.2 620.69 295.954 618.011 295.708C614.636 295.433 603.709 294.14 599.898 297.156C599.635 297.36 599.399 297.596 599.195 297.859C599.11 297.975 599.035 298.097 598.97 298.224L598.935 298.281C598.858 298.427 598.795 298.58 598.745 298.738C598.692 298.91 598.652 299.086 598.625 299.265C598.625 299.321 598.625 299.377 598.625 299.434C598.625 299.49 598.625 299.68 598.625 299.806V299.996C598.625 300.123 598.625 300.249 598.625 300.383C598.625 300.516 598.625 300.481 598.625 300.53C598.674 301.163 598.766 301.796 598.766 302.422C598.773 302.733 598.745 303.044 598.681 303.35C598.447 304.179 598.05 304.953 597.514 305.627L597.388 305.81C597.31 305.923 597.233 306.028 597.163 306.141C597.092 306.253 597.036 306.337 596.98 306.436C596.923 306.534 596.867 306.598 596.818 306.689C596.75 306.805 596.689 306.924 596.635 307.047C596.635 307.118 596.558 307.181 596.53 307.251C596.442 307.441 596.371 307.639 596.319 307.842C596.154 308.453 596.14 309.094 596.277 309.712C596.466 310.501 596.792 311.25 597.24 311.926C597.416 312.215 597.606 312.496 597.802 312.777L598.295 313.445C598.203 314.097 598.153 314.755 598.147 315.413C598.147 317.615 598.647 319.788 599.61 321.768C600.572 323.748 601.971 325.484 603.702 326.845C603.98 329.814 603.95 332.803 603.611 335.766C603.547 336.385 603.47 337.01 603.386 337.629C603.301 338.248 603.238 338.656 603.153 339.169C602.125 339.316 601.076 339.237 600.081 338.937C599.622 338.732 599.152 338.551 598.674 338.395C596.628 337.882 594.54 339.921 592.515 339.302C592.515 339.401 592.458 339.492 592.423 339.584C592.001 339.321 591.515 339.178 591.017 339.169C589.815 339.113 588.837 338.241 587.965 337.418L585.286 334.894C585.112 334.74 584.956 334.565 584.822 334.374C584.678 334.101 584.569 333.81 584.499 333.509C584.049 332.054 582.959 330.894 581.904 329.79C581.704 329.539 581.439 329.347 581.138 329.235C581.021 329.217 580.903 329.217 580.786 329.235C580.714 329.137 580.637 329.043 580.554 328.954C580.372 328.745 580.177 328.548 579.97 328.363C578.691 327.182 578.564 326.17 577.453 324.848C576.484 323.588 575.605 322.26 574.823 320.876C574.732 320.138 574.605 319.379 574.451 318.612C574.096 316.858 573.581 315.14 572.911 313.48L571.504 310.366L571.343 310.527C570.323 309.009 569.233 308.179 568.256 308.376C566.617 308.714 565.809 311.891 566.069 316.046L566.632 320.264C566.632 320.37 566.681 320.475 566.709 320.581C566.608 321.081 566.556 321.589 566.554 322.099C566.554 322.69 567.103 323.126 567.391 323.653C567.852 324.367 568.097 325.2 568.094 326.05C568.059 326.353 567.968 326.641 567.953 326.936C567.992 327.597 568.221 328.232 568.614 328.764L572.13 334.669L572.833 335.907L572.876 335.963C573.097 336.395 573.421 336.766 573.818 337.046C573.956 338.524 574.348 339.968 574.978 341.313C575.098 341.58 575.231 341.833 575.372 342.086C576.317 343.64 577.43 345.085 578.691 346.396L580.364 348.273C582.017 350.115 583.669 351.964 585.462 353.665C586.104 354.348 586.879 354.891 587.74 355.261C588.162 355.43 588.621 355.484 589.07 355.419C589.519 355.353 589.944 355.17 590.3 354.888C590.3 355.76 590.3 356.632 590.3 357.504C590.561 357.52 590.813 357.605 591.03 357.751C591.247 357.897 591.421 358.098 591.534 358.334C591.647 358.57 591.696 358.832 591.674 359.092C591.652 359.353 591.561 359.603 591.411 359.817C589.934 363.606 588.443 367.43 586.207 370.826C587.786 371.76 589.249 372.876 590.567 374.151C591.422 375.099 592.183 376.128 592.838 377.224C592.901 377.744 592.951 378.257 592.979 378.77C593.499 387.15 590.258 395.467 587.354 403.454C586.517 405.717 585.603 408.087 585.673 410.442C585.122 410.781 584.596 411.16 584.098 411.574C584.675 413.078 584.45 414.421 584.386 416.031C584.365 416.996 584.167 417.949 583.803 418.843C583.497 419.462 583.159 420.065 582.79 420.65C580.969 423.862 580.568 427.68 580.202 431.35C579.984 433.564 580.842 436.271 579.837 438.253C578.1 441.656 576.56 445.284 576.321 449.066C576.313 449.917 576.204 450.764 575.998 451.59C575.78 452.293 575.393 452.89 575.196 453.579C574.993 454.502 574.946 455.453 575.055 456.391C575.189 459.761 574.688 463.126 573.579 466.311C572.7 468.821 571.729 471.507 572.418 474.087C570.722 475.868 569.674 478.169 569.444 480.618C569.426 481.244 569.351 481.868 569.219 482.481C569.004 483.107 568.721 483.709 568.375 484.273C566.96 486.851 566.297 489.774 566.463 492.71C564.353 495.571 563.299 499.1 562.673 502.608C562.047 506.117 561.773 509.688 560.971 513.154C559.902 517.738 557.969 522.371 557.589 527.067C555.311 528.522 554.326 531.341 553.89 534.006C553.454 536.67 553.384 539.468 552.266 541.929C551.689 543.208 550.86 544.354 550.311 545.662C549.927 546.703 549.644 547.779 549.467 548.875C549.13 550.59 548.835 552.502 549.25 554.147C548.653 554.779 547.957 555.309 547.189 555.715C547.302 555.279 547.393 554.843 547.47 554.4C545.656 556.046 542.366 555.469 540.917 557.445C540.482 558.081 540.312 558.862 540.444 559.622C540.575 560.382 540.997 561.061 541.62 561.515C542.073 561.791 542.563 562.002 543.076 562.141C546.592 563.266 550.206 564.397 553.82 563.8C554.247 563.754 554.661 563.622 555.036 563.413C555.507 563.067 555.893 562.62 556.169 562.106C556.71 561.248 557.251 560.39 557.786 559.533C559.081 559.919 560.398 560.227 561.731 560.453C561.864 561.578 561.963 562.703 562.012 563.828C562.715 563.969 563.657 564.011 563.988 563.357C564.088 563.11 564.129 562.842 564.107 562.577C564.107 562.077 564.178 561.417 564.22 560.742H564.36C566.506 560.828 568.64 560.397 570.583 559.483C569.831 553.255 572.313 547.166 574.465 541.275C576.736 535.074 578.684 528.761 580.645 522.448C582.052 518.005 583.606 513.702 584.984 509.252C586.718 503.628 588.46 498.004 590.208 492.379C590.968 489.905 591.734 487.458 592.606 484.998C594.442 480.019 596.62 475.173 599.124 470.494C599.828 469.165 600.531 467.851 601.107 466.473C601.81 464.793 602.31 463.035 602.872 461.299C604.098 457.736 605.574 454.263 607.288 450.908C607.337 450.816 607.372 450.732 607.422 450.648C607.991 452.975 608.561 455.337 608.94 457.678C609.454 460.549 609.495 463.484 609.06 466.367C608.722 468.329 608.083 470.269 608.16 472.259C608.265 475.008 609.735 477.503 610.459 480.154C610.926 482.137 611.19 484.163 611.247 486.2C611.444 489.363 613.159 492.914 611.95 495.845C608.188 505.132 610.009 515.621 607.865 525.372C606.761 530.378 603.378 535.081 603.646 540.199C603.833 543.832 604.152 547.455 604.602 551.068C604.71 552.208 605.007 553.322 605.481 554.365C605.761 554.914 606.084 555.44 606.444 555.94C606.135 556.06 605.875 556.376 605.65 557.044C605.073 558.801 605.65 560.981 607.211 561.965C607.847 562.305 608.533 562.542 609.243 562.668C610.199 562.94 611.188 563.077 612.182 563.076C612.491 563.059 612.799 563.022 613.103 562.963C614.19 563.42 615.3 563.819 616.429 564.158C616.429 564.447 616.485 564.735 616.52 565.023C616.522 565.174 616.556 565.322 616.619 565.459C616.682 565.596 616.773 565.718 616.886 565.818C617.062 565.899 617.256 565.933 617.449 565.916H621.267C621.267 565.6 621.267 565.276 621.267 564.96C621.704 565.005 622.145 564.959 622.563 564.823C622.981 564.688 623.366 564.466 623.693 564.173C624.031 563.742 624.271 563.243 624.396 562.71C625.437 559.181 626.47 555.649 627.497 552.116C628.728 548.209 629.24 544.112 629.009 540.024C627.651 527.067 630.633 514.068 629.662 501.076C629.079 493.267 629.48 485.416 630.858 477.707C631.174 475.964 631.561 474.192 631.702 472.456C632.011 469.18 631.631 465.868 631.863 462.613C631.941 461.474 632.095 460.342 632.236 459.211C633.199 452.185 633.704 445.105 633.748 438.014C633.726 435.665 633.581 433.318 633.312 430.984C634.045 430.797 634.71 430.408 635.231 429.859C635.857 429.044 635.696 427.898 635.689 426.857C635.689 424.369 636.736 422.02 637.58 419.672C638.663 416.434 639.55 413.133 640.238 409.788C640.964 407.092 641.361 404.318 641.419 401.527C641.419 401.246 641.405 400.965 641.377 400.684C641.642 400.5 641.863 400.26 642.024 399.981C642.208 399.569 642.322 399.129 642.362 398.68C642.615 396.887 642.875 395.088 643.128 393.288C643.315 391.999 643.501 390.712 643.683 389.428L645.919 373.828C646.109 372.471 646.306 371.121 646.496 369.772L647.08 365.736C647.143 365.258 647.213 364.78 647.262 364.33C648.978 361.462 647.34 357.637 647.157 354.375ZM628.502 412.783C627.673 410.814 626.899 408.797 627.096 406.673H627.019C627.204 406.02 627.172 405.324 626.927 404.691C626.709 404.178 626.33 403.742 626.097 403.229C625.848 402.602 625.719 401.934 625.718 401.26C625.543 396.984 625.881 392.703 626.723 388.507C626.815 388.015 626.913 387.516 627.005 387.024C627.299 386.853 627.569 386.643 627.806 386.398C628.176 385.977 628.482 385.503 628.713 384.992C629.508 383.396 630.232 381.772 630.9 380.12C631.118 379.586 631.434 378.967 631.976 378.834C631.863 382.946 632.285 387.143 630.612 390.855C630.294 391.454 630.057 392.092 629.909 392.753C629.754 393.801 630.19 394.863 630.035 395.903C629.958 396.444 629.726 396.944 629.634 397.478C629.565 397.74 629.566 398.016 629.638 398.278C629.709 398.54 629.849 398.778 630.042 398.968C630.135 399.034 630.237 399.086 630.345 399.123C630.302 399.404 630.267 399.692 630.239 399.967C630.183 400.543 630.155 401.084 630.12 401.422C629.958 403.142 629.894 404.869 629.93 406.596C629.93 408.459 630 410.322 629.972 412.22C629.998 412.765 629.907 413.309 629.705 413.816C629.565 414.078 629.385 414.315 629.17 414.519C628.966 413.886 628.741 413.331 628.502 412.783Z" fill="url(#paint48_linear)"/>
<path d="M572.997 331.209C575.142 330.77 575.873 325.489 574.628 319.415C573.383 313.34 570.634 308.772 568.489 309.212C566.343 309.651 565.613 314.932 566.858 321.007C568.103 327.081 570.851 331.649 572.997 331.209Z" fill="#FBBEBE"/>
<path d="M605.762 557.177C605.185 558.921 605.762 561.1 607.323 562.049C607.955 562.386 608.636 562.623 609.341 562.752C610.295 563.022 611.282 563.157 612.273 563.153C613.49 563.097 614.657 562.619 615.873 562.45C616.014 562.415 616.162 562.435 616.288 562.506C616.349 562.572 616.395 562.65 616.421 562.735C616.448 562.82 616.455 562.91 616.443 562.998C616.456 563.69 616.508 564.38 616.598 565.065C616.599 565.216 616.632 565.365 616.695 565.502C616.758 565.639 616.849 565.761 616.963 565.86C617.139 565.942 617.333 565.976 617.526 565.958H621.337C621.423 562.611 621.056 559.267 620.247 556.017C620.194 555.769 620.099 555.531 619.966 555.314C619.642 554.96 619.217 554.715 618.749 554.611C617.817 554.224 616.811 554.048 615.803 554.098C614.572 554.26 613.546 555.054 612.498 555.715C611.45 556.376 610.023 556.959 608.75 556.622C607.478 556.285 606.416 555.223 605.762 557.177Z" fill="#3F3D56"/>
<path d="M549.805 554.09C548.734 555.238 547.42 556.131 545.959 556.706L545.312 557.015C545.223 557.049 545.146 557.111 545.094 557.191C545.082 557.245 545.082 557.302 545.094 557.357C545.106 557.412 545.13 557.463 545.165 557.507C545.703 558.34 546.498 558.973 547.43 559.312C548.362 559.651 549.378 559.676 550.326 559.384C550.744 559.279 551.132 559.077 551.458 558.794C551.994 558.158 552.301 557.361 552.33 556.53C552.543 555.673 552.506 554.773 552.224 553.936C551.247 551.735 550.888 552.734 549.805 554.09Z" fill="#FBBEBE"/>
<path d="M564.417 562.752C564.439 563.018 564.398 563.285 564.297 563.532C563.967 564.179 563.046 564.144 562.329 564.003C562.22 561.618 561.931 559.244 561.464 556.903C560.1 556.839 559.115 558.133 558.384 559.293L556.499 562.281C556.227 562.795 555.842 563.242 555.374 563.588C554.998 563.794 554.585 563.926 554.158 563.975C550.558 564.573 546.922 563.441 543.449 562.316C542.937 562.179 542.447 561.97 541.993 561.697C541.373 561.242 540.954 560.565 540.823 559.807C540.692 559.049 540.859 558.271 541.29 557.634C542.746 555.665 546.015 556.228 547.83 554.597C547.64 555.744 547.329 556.868 546.901 557.95C549.327 557.584 550.959 555.363 552.913 553.88C553.404 553.463 553.996 553.182 554.629 553.064C555.103 553.024 555.58 553.074 556.035 553.212C558.289 553.779 560.398 554.817 562.223 556.256C562.961 556.839 564.115 557.662 564.438 558.562C564.783 559.637 564.417 561.606 564.417 562.752Z" fill="#3F3D56"/>
<path d="M612.787 330.795C620.81 330.795 627.314 324.292 627.314 316.271C627.314 308.249 620.81 301.746 612.787 301.746C604.764 301.746 598.26 308.249 598.26 316.271C598.26 324.292 604.764 330.795 612.787 330.795Z" fill="#FBBEBE"/>
<path d="M641.405 402.026C641.347 404.802 640.952 407.562 640.231 410.244C639.543 413.575 638.656 416.862 637.573 420.086C636.736 422.428 635.689 424.776 635.696 427.257C635.696 428.291 635.864 429.437 635.232 430.252C634.668 430.825 633.958 431.231 633.178 431.426C632.79 431.529 632.43 431.722 632.13 431.99C631.829 432.257 631.596 432.592 631.449 432.966C630.788 431.98 630.294 430.892 629.986 429.746C628.725 425.884 627.553 422.001 626.47 418.097C626.371 417.872 626.328 417.627 626.345 417.382C626.363 417.137 626.439 416.9 626.569 416.691C626.747 416.536 626.955 416.419 627.18 416.346C627.901 416.053 628.561 415.628 629.128 415.095C629.394 414.859 629.614 414.575 629.775 414.258C629.979 413.755 630.073 413.213 630.049 412.67C630.049 410.807 630.049 408.951 630 407.087C629.971 405.367 630.036 403.647 630.197 401.934C630.197 401.597 630.26 401.055 630.317 400.479C630.422 399.375 630.633 398.096 631.231 397.667C632.124 397.069 634.796 397.871 635.808 398.011C637.552 398.25 639.324 398.532 641.026 398.862C641.273 399.899 641.4 400.96 641.405 402.026Z" fill="#3F3D56"/>
<path d="M582.748 332.533C582.185 333.658 580.835 334.199 579.794 334.909L576.229 337.356C575.991 337.57 575.712 337.734 575.409 337.838C575.105 337.942 574.784 337.984 574.464 337.96C574.174 337.853 573.909 337.689 573.683 337.478C573.457 337.267 573.276 337.012 573.15 336.73C573.152 336.711 573.152 336.692 573.15 336.674L572.411 335.436L568.895 329.545C568.505 329.017 568.277 328.387 568.242 327.731C568.242 327.429 568.347 327.148 568.375 326.845C568.385 325.996 568.14 325.164 567.672 324.455C567.391 323.928 566.828 323.492 566.842 322.901C566.815 322.125 566.949 321.352 567.236 320.631C567.605 319.963 568.134 319.398 568.776 318.986C569.106 318.747 569.444 318.522 569.796 318.283C569.982 318.155 570.189 318.06 570.407 318.001C570.991 317.882 571.567 318.367 572.158 318.388C574.697 320.089 575.674 323.309 577.671 325.629C578.796 326.951 578.908 327.963 580.181 329.144C580.385 329.327 580.582 329.524 580.772 329.728C581.023 330.002 581.236 330.31 581.405 330.642C581.637 331.246 583.036 331.956 582.748 332.533Z" fill="#3F3D56"/>
<path d="M607.682 330.802C608.73 333.017 609.546 335.449 609.243 337.882C609.182 338.541 608.972 339.177 608.632 339.745C607.619 341.298 605.496 341.58 603.646 341.671C603.257 341.638 602.864 341.684 602.493 341.804C602.121 341.925 601.777 342.119 601.481 342.374C601.234 342.733 601.113 343.164 601.137 343.599C601.161 344.034 601.329 344.449 601.614 344.778C602.209 345.412 602.946 345.895 603.766 346.184C606.691 347.471 609.848 348.532 613.026 348.237C614.503 348.097 615.937 347.668 617.407 347.45C619.009 347.276 620.619 347.187 622.231 347.183C624.143 347.112 626.049 346.923 627.954 346.733L633.003 346.234C633.279 346.238 633.547 346.14 633.755 345.959C634.128 345.524 633.65 344.884 633.186 344.553C630.507 342.571 627.096 341.207 625.571 338.226C624.867 336.82 624.649 335.147 624.129 333.628C623.609 332.11 622.779 330.739 622.456 329.192C622.283 327.835 622.206 326.468 622.224 325.101C622.241 323.722 621.739 322.386 620.817 321.361C619.812 320.425 618.356 320.186 616.992 320.13C613.631 319.983 610.052 320.784 607.668 323.153C607.028 323.793 606.48 324.559 605.819 325.136C605.158 325.712 604.258 325.881 604.694 326.64C605.13 327.4 605.988 327.871 606.452 328.538C606.922 329.259 607.333 330.016 607.682 330.802Z" fill="#FBBEBE"/>
<path d="M636.321 351.253C635.435 356.666 633.993 361.974 632.018 367.092C631.025 369.403 630.18 371.775 629.487 374.193C628.945 376.372 629.051 378.706 628.551 380.893C627.933 383.613 627.314 386.341 626.815 389.083C625.977 393.27 625.642 397.541 625.816 401.808C625.818 402.48 625.947 403.145 626.196 403.769C626.428 404.275 626.801 404.711 627.018 405.231C627.182 405.688 627.248 406.174 627.214 406.658C627.18 407.142 627.047 407.614 626.822 408.043C626.461 408.848 625.972 409.589 625.373 410.237C618.82 412.191 611.809 411.552 604.981 411.966C598.688 412.346 592.325 413.64 586.123 412.564C585.42 409.752 586.594 406.806 587.599 404.064C590.518 396.099 593.745 387.803 593.225 379.458C593.17 378.485 593.06 377.516 592.894 376.555C591.875 370.642 592.986 364.519 594.765 358.789C595.869 355.218 595.819 351.415 595.566 347.696C595.441 346.488 595.424 345.272 595.517 344.061C595.619 342.825 596.078 341.645 596.839 340.665C596.839 340.616 596.902 340.567 596.937 340.518C596.972 340.469 597.247 340.476 597.465 340.518C597.52 340.541 597.58 340.554 597.64 340.554C597.701 340.554 597.761 340.541 597.816 340.518L597.894 340.469C597.923 340.447 597.959 340.436 597.996 340.436C598.032 340.436 598.068 340.447 598.098 340.469C598.259 340.567 598.351 340.904 598.702 340.968C599.222 341.046 599.745 341.096 600.27 341.115C600.902 341.134 601.529 341.224 602.141 341.382H602.225C603.14 341.537 604.078 341.457 604.953 341.15C605.536 341.005 606.098 340.788 606.627 340.504C606.782 340.335 607.752 340.18 607.949 340.061C608.589 339.674 608.448 337.86 608.582 337.115C608.656 336.368 608.833 335.634 609.109 334.936C609.429 334.42 609.871 333.991 610.396 333.686C610.92 333.381 611.512 333.209 612.119 333.185C613.329 333.156 614.539 333.265 615.726 333.509C618.349 333.881 621.035 333.818 623.608 334.423C624.902 334.725 626.315 335.182 627.504 334.591C627.827 334.669 627.876 334.95 627.876 335.294C627.846 335.622 627.78 335.945 627.679 336.257C627.229 338.198 628.755 339.983 630.162 341.39C630.756 342.052 631.457 342.611 632.236 343.042C632.939 343.365 633.642 343.499 634.345 343.85C634.915 344.154 635.399 344.596 635.752 345.137C636.157 345.756 636.43 346.453 636.553 347.182C636.704 348.543 636.626 349.919 636.321 351.253Z" fill="#3F3D56"/>
<path opacity="0.1" d="M636.321 351.253C635.435 356.667 633.992 361.974 632.018 367.092C631.025 369.403 630.18 371.775 629.486 374.193C628.945 376.372 629.051 378.706 628.551 380.893C627.933 383.613 627.314 386.341 626.815 389.083C626.667 389.167 626.512 389.245 626.357 389.315C625.483 389.733 624.555 390.031 623.601 390.201C621.887 390.408 620.151 390.351 618.454 390.032L608.42 388.689C604.412 388.148 600.144 387.494 597.169 384.781C595.517 383.29 594.434 381.322 593.246 379.423C593.191 378.45 593.081 377.481 592.915 376.52C591.896 370.608 593.007 364.484 594.786 358.754C595.89 355.183 595.84 351.38 595.587 347.661C595.462 346.453 595.446 345.237 595.538 344.026C595.64 342.79 596.099 341.61 596.86 340.63C597.065 340.57 597.274 340.523 597.486 340.49C597.627 340.461 597.771 340.442 597.915 340.434H598.119C598.356 340.434 598.592 340.463 598.822 340.518C599.301 340.67 599.771 340.851 600.228 341.059H600.313C600.915 341.258 601.549 341.348 602.183 341.326C603.111 341.326 604.067 341.179 604.996 341.116C606.142 340.936 607.316 341.147 608.328 341.713C608.982 342.238 609.602 342.804 610.185 343.407C610.888 343.96 611.68 344.39 612.526 344.68C618.579 346.99 625.294 346.849 631.244 344.286C631.816 343.961 632.464 343.796 633.122 343.808C633.607 343.903 634.067 344.1 634.472 344.385C634.894 344.631 635.309 344.87 635.738 345.088C636.143 345.707 636.416 346.404 636.539 347.133C636.7 348.509 636.627 349.902 636.321 351.253Z" fill="black"/>
<path d="M642.446 346.599C639.646 345.744 636.955 344.564 634.43 343.084C634.024 342.801 633.564 342.604 633.079 342.507C632.42 342.499 631.771 342.664 631.195 342.985C625.247 345.547 618.534 345.688 612.484 343.379C611.639 343.086 610.848 342.656 610.142 342.106C609.558 341.505 608.938 340.939 608.286 340.412C605.973 338.915 602.773 340.672 600.186 339.709C599.727 339.504 599.257 339.323 598.779 339.168C596.733 338.655 594.652 340.693 592.641 340.075C591.893 342.108 591.339 344.208 590.988 346.346C590.703 348.801 590.55 351.27 590.531 353.741C590.531 355.225 590.461 356.708 590.531 358.192C590.779 358.232 591.016 358.324 591.227 358.46C591.437 358.597 591.617 358.776 591.755 358.986C591.847 359.231 591.885 359.493 591.866 359.754C591.846 360.015 591.77 360.269 591.642 360.498C590.173 364.273 588.682 368.09 586.453 371.472C588.024 372.408 589.482 373.521 590.799 374.79C593.26 377.391 594.469 381.04 597.127 383.444C600.122 386.151 604.391 386.812 608.378 387.346L618.412 388.689C620.111 389.007 621.849 389.066 623.566 388.865C624.518 388.691 625.443 388.391 626.315 387.972C626.885 387.734 627.405 387.39 627.848 386.959C628.219 386.539 628.524 386.065 628.755 385.553C629.55 383.965 630.274 382.341 630.942 380.695C631.174 380.112 631.525 379.43 632.158 379.381C635.885 376.02 639.401 372.576 643.128 369.215C644.625 367.974 645.968 366.558 647.129 364.997C648.978 362.262 647.297 358.388 647.129 355.084C647.108 354.239 647.002 353.398 646.812 352.574C646.207 350.177 644.787 347.309 642.446 346.599Z" fill="url(#paint49_linear)"/>
<path opacity="0.1" d="M582.748 332.531C582.185 333.656 580.835 334.198 579.795 334.908L576.23 337.354C575.992 337.569 575.712 337.733 575.409 337.837C575.106 337.941 574.785 337.982 574.465 337.959C574.175 337.852 573.909 337.688 573.683 337.476C573.457 337.265 573.276 337.011 573.15 336.728C573.15 336.567 573.15 336.391 573.15 336.222C573.123 335.653 573.199 335.084 573.375 334.542C573.724 333.747 574.265 333.051 574.95 332.517C576.274 331.264 577.848 330.306 579.57 329.705C579.838 329.601 580.13 329.572 580.413 329.621C580.523 329.649 580.627 329.694 580.723 329.754C580.974 330.029 581.187 330.336 581.356 330.668C581.637 331.245 583.036 331.955 582.748 332.531Z" fill="black"/>
<path d="M591.144 339.942C589.949 339.886 588.971 339.021 588.099 338.198L585.434 335.724C585.256 335.573 585.1 335.398 584.97 335.203C584.826 334.93 584.718 334.639 584.647 334.339C584.082 332.919 583.196 331.648 582.059 330.627C581.861 330.375 581.595 330.185 581.293 330.078C581.007 330.026 580.712 330.055 580.442 330.163C578.72 330.762 577.145 331.721 575.822 332.975C575.138 333.509 574.597 334.205 574.247 334.999C574.07 335.541 573.994 336.111 574.022 336.68C574.039 338.537 574.456 340.369 575.246 342.051C575.365 342.311 575.499 342.571 575.64 342.824C576.578 344.374 577.686 345.815 578.944 347.12L580.618 348.99C582.263 350.832 583.909 352.674 585.695 354.368C586.335 355.051 587.111 355.592 587.973 355.957C588.406 356.133 588.879 356.187 589.34 356.113C589.801 356.039 590.233 355.839 590.589 355.535C590.925 355.145 591.179 354.691 591.334 354.199C592.417 351.387 593.443 348.462 593.507 345.432C593.522 344.219 593.47 343.006 593.352 341.798C593.246 340.518 592.339 340.019 591.144 339.942Z" fill="url(#paint50_linear)"/>
<path d="M633.755 438.365C633.714 445.437 633.211 452.499 632.25 459.505C632.109 460.637 631.955 461.769 631.877 462.901C631.645 466.184 632.025 469.481 631.716 472.743C631.554 474.508 631.188 476.258 630.879 477.981C629.505 485.668 629.103 493.498 629.684 501.286C630.654 514.243 627.68 527.207 629.03 540.128C629.193 542.641 629.054 545.164 628.615 547.644C628.363 549.182 627.999 550.7 627.525 552.185C626.498 555.705 625.467 559.22 624.431 562.731C624.309 563.265 624.069 563.764 623.728 564.193C623.369 564.503 622.948 564.733 622.494 564.868C622.039 565.002 621.561 565.038 621.091 564.973C617.034 564.847 613.216 563.096 609.531 561.388C609.107 561.221 608.715 560.983 608.371 560.685C607.604 559.89 607.668 558.639 607.33 557.592C606.993 556.544 606.079 555.56 605.558 554.484C605.13 553.467 604.872 552.386 604.792 551.285C604.323 547.686 604.004 544.072 603.836 540.445C603.568 535.341 606.943 530.645 608.054 525.681C610.164 515.923 608.378 505.462 612.126 496.203C613.307 493.279 611.591 489.735 611.423 486.586C611.362 484.554 611.098 482.533 610.635 480.554C609.932 477.91 608.448 475.422 608.343 472.68C608.265 470.697 608.905 468.764 609.236 466.81C609.674 463.933 609.634 461.004 609.116 458.141C608.744 455.779 608.174 453.417 607.604 451.111L607.478 451.371C605.765 454.719 604.291 458.184 603.069 461.741C602.507 463.463 602.014 465.221 601.311 466.894C600.735 468.3 600.024 469.587 599.328 470.908C596.831 475.569 594.658 480.396 592.824 485.355C591.952 487.788 591.186 490.277 590.426 492.716L585.216 509.589C583.81 514.025 582.27 518.313 580.892 522.742C578.944 529.07 576.996 535.341 574.732 541.527C572.622 547.398 570.112 553.479 570.865 559.68C568.926 560.591 566.796 561.022 564.656 560.938C561.032 560.617 557.476 559.755 554.108 558.379C552.765 557.88 551.373 557.317 550.466 556.214C548.905 554.308 549.292 551.517 549.763 549.092C549.94 547.999 550.223 546.925 550.607 545.886C551.141 544.593 552.013 543.447 552.561 542.167C553.665 539.714 553.736 536.937 554.172 534.272C554.608 531.608 555.578 528.796 557.856 527.347C558.243 522.665 560.17 518.046 561.231 513.47C562.033 510.004 562.3 506.439 562.933 502.924C563.566 499.409 564.585 495.894 566.709 493.047C566.541 490.111 567.204 487.187 568.622 484.61C568.964 484.044 569.244 483.443 569.458 482.818C569.589 482.207 569.665 481.586 569.683 480.962C569.916 478.519 570.96 476.224 572.651 474.444C571.947 471.878 572.925 469.2 573.804 466.711C574.911 463.535 575.412 460.18 575.28 456.82C575.171 455.881 575.216 454.931 575.414 454.007C575.611 453.304 575.998 452.707 576.223 452.032C576.423 451.205 576.529 450.359 576.539 449.508C576.813 445.705 578.353 442.119 580.055 438.724C581.067 436.741 580.209 434.049 580.42 431.841C580.786 428.171 581.187 424.375 583.008 421.176C583.346 420.571 583.711 419.995 584.014 419.369C584.38 418.476 584.578 417.523 584.597 416.557C584.66 414.947 584.885 413.612 584.309 412.114C588.071 408.986 593.204 408.107 598.098 407.896C602.992 407.685 607.942 408.128 612.73 407.087C614.137 406.771 615.543 406.335 617.027 406.124C620.395 405.632 623.812 406.398 627.138 407.158C626.906 409.267 627.68 411.292 628.544 413.253C631.921 421.198 633.692 429.733 633.755 438.365Z" fill="#33313F"/>
<path opacity="0.1" d="M617.195 439.975L609.116 458.141C608.743 455.779 608.174 453.417 607.604 451.111L607.478 451.371V450.991L611.879 441.31L617.195 439.975Z" fill="black"/>
<path opacity="0.1" d="M641.406 402.026C640.939 402.374 640.383 402.582 639.802 402.623C638.912 402.655 638.022 402.534 637.173 402.265L630.844 400.683C630.646 400.634 630.453 400.566 630.268 400.479C630.373 399.375 630.584 398.096 631.182 397.667C632.075 397.069 634.747 397.871 635.759 398.011C637.503 398.25 639.275 398.532 640.977 398.862C641.24 399.897 641.384 400.958 641.406 402.026Z" fill="black"/>
<path d="M646.756 360.196C646.89 360.78 647.08 361.356 647.192 361.947C647.382 363.396 647.332 364.866 647.045 366.299L646.468 370.32L645.891 374.362L643.663 389.92L643.114 393.773L642.341 399.151C642.304 399.599 642.19 400.036 642.003 400.445C641.773 400.827 641.451 401.146 641.067 401.373C640.683 401.6 640.248 401.728 639.802 401.745C638.912 401.774 638.023 401.652 637.172 401.387L630.844 399.798C630.567 399.749 630.303 399.641 630.071 399.482C629.877 399.293 629.738 399.056 629.666 398.795C629.594 398.534 629.593 398.259 629.663 397.998C629.754 397.464 629.986 396.965 630.064 396.43C630.218 395.39 629.782 394.321 629.937 393.288C630.089 392.63 630.325 391.994 630.64 391.397C632.75 386.736 631.526 381.294 632.243 376.233C632.889 372.249 634.572 368.505 637.123 365.378C638.698 363.404 640.506 361.629 642.509 360.091C643.297 359.479 644.548 358.221 645.54 357.982C646.813 357.715 646.545 359.311 646.756 360.196Z" fill="url(#paint51_linear)"/>
<path d="M598.864 299.637C598.4 301.114 599.124 302.737 598.794 304.242C598.435 305.901 596.874 307.054 596.431 308.72C595.728 311.258 597.88 313.571 599.455 315.68C605.291 323.512 604.525 334.353 602.528 343.907C600.921 351.572 598.699 359.095 595.883 366.404C595.004 368.674 594.033 370.98 592.304 372.682C595.538 371.754 598.977 370.819 602.218 371.719C606.325 372.857 609.868 376.844 614.031 375.937C616.534 375.381 618.292 373.16 620.542 371.929C624.761 369.659 629.845 371.086 634.549 371.817C635.563 372.056 636.624 372.002 637.608 371.662C638.36 371.258 638.999 370.67 639.464 369.954C641.564 367.261 642.821 364.008 643.078 360.604C643.19 358.908 642.94 357.209 642.344 355.617C641.749 354.026 640.823 352.579 639.626 351.373C638.628 350.431 637.432 349.672 636.666 348.561C635.92 347.264 635.521 345.797 635.506 344.3C634.95 336.567 636.835 328.672 634.894 321.192C634.191 318.527 633.045 315.975 632.735 313.248C632.348 309.852 633.269 306.217 631.919 303.11C630.858 300.642 628.516 298.892 625.992 297.992C623.468 297.092 620.767 296.839 618.088 296.586C614.235 296.263 600.474 294.611 598.864 299.637Z" fill="#33313F"/>
<g opacity="0.1">
<path opacity="0.1" d="M602.528 343.906C600.929 351.54 598.718 359.033 595.918 366.312C596.403 365.349 596.811 364.336 597.198 363.331C600.017 356.024 602.239 348.5 603.842 340.834C605.846 331.273 606.613 320.446 600.777 312.608C599.37 310.738 597.563 308.713 597.627 306.52C597.107 307.183 596.703 307.929 596.431 308.727C595.728 311.265 597.88 313.578 599.455 315.687C605.291 323.512 604.525 334.352 602.528 343.906Z" fill="black"/>
<path opacity="0.1" d="M598.878 303.532C599.442 302.831 599.863 302.026 600.116 301.163C600.224 300.118 600.196 299.064 600.031 298.027C599.49 298.435 599.083 298.996 598.864 299.637C598.449 300.882 598.927 302.231 598.878 303.532Z" fill="black"/>
<path opacity="0.1" d="M640.786 366.86C640.321 367.575 639.682 368.16 638.93 368.562C637.947 368.909 636.884 368.962 635.871 368.716C631.167 368.013 626.027 366.565 621.864 368.836C619.607 370.059 617.856 372.281 615.346 372.843C611.191 373.771 607.647 369.785 603.54 368.625C600.629 367.816 597.563 368.484 594.631 369.328C594.049 370.57 593.262 371.706 592.304 372.688C595.538 371.76 598.977 370.825 602.218 371.725C606.325 372.864 609.869 376.85 614.031 375.943C616.534 375.388 618.292 373.166 620.542 371.936C624.761 369.665 629.845 371.092 634.549 371.824C635.563 372.063 636.624 372.009 637.608 371.669C638.361 371.264 638.999 370.677 639.464 369.961C640.739 368.28 641.723 366.398 642.375 364.393C641.906 365.252 641.375 366.077 640.786 366.86Z" fill="black"/>
</g>
</g>
<defs>
<linearGradient id="paint0_linear" x1="410.002" y1="-0.00488281" x2="410.002" y2="532.437" gradientUnits="userSpaceOnUse">
<stop stop-color="#01DC9C"/>
<stop offset="1" stop-color="#01A9C6"/>
</linearGradient>
<linearGradient id="paint1_linear" x1="689.3" y1="450.604" x2="689.3" y2="456.69" gradientUnits="userSpaceOnUse">
<stop stop-color="#01DC9C"/>
<stop offset="1" stop-color="#01A9C6"/>
</linearGradient>
<linearGradient id="paint2_linear" x1="696.396" y1="454.008" x2="696.396" y2="470.831" gradientUnits="userSpaceOnUse">
<stop stop-color="#01DC9C"/>
<stop offset="1" stop-color="#01A9C6"/>
</linearGradient>
<linearGradient id="paint3_linear" x1="699.809" y1="438.136" x2="699.809" y2="447.964" gradientUnits="userSpaceOnUse">
<stop stop-color="#01DC9C"/>
<stop offset="1" stop-color="#01A9C6"/>
</linearGradient>
<linearGradient id="paint4_linear" x1="710.08" y1="444.342" x2="710.08" y2="464.983" gradientUnits="userSpaceOnUse">
<stop stop-color="#01DC9C"/>
<stop offset="1" stop-color="#01A9C6"/>
</linearGradient>
<linearGradient id="paint5_linear" x1="712.528" y1="419.584" x2="712.528" y2="435.632" gradientUnits="userSpaceOnUse">
<stop stop-color="#01DC9C"/>
<stop offset="1" stop-color="#01A9C6"/>
</linearGradient>
<linearGradient id="paint6_linear" x1="723.629" y1="404.414" x2="723.629" y2="420.227" gradientUnits="userSpaceOnUse">
<stop stop-color="#01DC9C"/>
<stop offset="1" stop-color="#01A9C6"/>
</linearGradient>
<linearGradient id="paint7_linear" x1="732.303" y1="388.39" x2="732.303" y2="402.951" gradientUnits="userSpaceOnUse">
<stop stop-color="#01DC9C"/>
<stop offset="1" stop-color="#01A9C6"/>
</linearGradient>
<linearGradient id="paint8_linear" x1="741.704" y1="371.975" x2="741.704" y2="386.91" gradientUnits="userSpaceOnUse">
<stop stop-color="#01DC9C"/>
<stop offset="1" stop-color="#01A9C6"/>
</linearGradient>
<linearGradient id="paint9_linear" x1="748.657" y1="353.037" x2="748.657" y2="371.81" gradientUnits="userSpaceOnUse">
<stop stop-color="#01DC9C"/>
<stop offset="1" stop-color="#01A9C6"/>
</linearGradient>
<linearGradient id="paint10_linear" x1="753.665" y1="335.521" x2="753.665" y2="353.468" gradientUnits="userSpaceOnUse">
<stop stop-color="#01DC9C"/>
<stop offset="1" stop-color="#01A9C6"/>
</linearGradient>
<linearGradient id="paint11_linear" x1="757.827" y1="314.299" x2="757.827" y2="337.509" gradientUnits="userSpaceOnUse">
<stop stop-color="#01DC9C"/>
<stop offset="1" stop-color="#01A9C6"/>
</linearGradient>
<linearGradient id="paint12_linear" x1="760.984" y1="294.833" x2="760.984" y2="320.63" gradientUnits="userSpaceOnUse">
<stop stop-color="#01DC9C"/>
<stop offset="1" stop-color="#01A9C6"/>
</linearGradient>
<linearGradient id="paint13_linear" x1="762.51" y1="276.417" x2="762.51" y2="302.218" gradientUnits="userSpaceOnUse">
<stop stop-color="#01DC9C"/>
<stop offset="1" stop-color="#01A9C6"/>
</linearGradient>
<linearGradient id="paint14_linear" x1="764.895" y1="258.208" x2="764.895" y2="281.788" gradientUnits="userSpaceOnUse">
<stop stop-color="#01DC9C"/>
<stop offset="1" stop-color="#01A9C6"/>
</linearGradient>
<linearGradient id="paint15_linear" x1="767.376" y1="237.919" x2="767.376" y2="262.905" gradientUnits="userSpaceOnUse">
<stop stop-color="#01DC9C"/>
<stop offset="1" stop-color="#01A9C6"/>
</linearGradient>
<linearGradient id="paint16_linear" x1="770.677" y1="218.881" x2="770.677" y2="242.91" gradientUnits="userSpaceOnUse">
<stop stop-color="#01DC9C"/>
<stop offset="1" stop-color="#01A9C6"/>
</linearGradient>
<linearGradient id="paint17_linear" x1="776.872" y1="193.613" x2="776.872" y2="229.264" gradientUnits="userSpaceOnUse">
<stop stop-color="#01DC9C"/>
<stop offset="1" stop-color="#01A9C6"/>
</linearGradient>
<linearGradient id="paint18_linear" x1="789.824" y1="170.393" x2="789.824" y2="203.245" gradientUnits="userSpaceOnUse">
<stop stop-color="#01DC9C"/>
<stop offset="1" stop-color="#01A9C6"/>
</linearGradient>
<linearGradient id="paint19_linear" x1="727.518" y1="432.114" x2="727.518" y2="450.113" gradientUnits="userSpaceOnUse">
<stop stop-color="#01DC9C"/>
<stop offset="1" stop-color="#01A9C6"/>
</linearGradient>
<linearGradient id="paint20_linear" x1="741.275" y1="415.911" x2="741.275" y2="436.12" gradientUnits="userSpaceOnUse">
<stop stop-color="#01DC9C"/>
<stop offset="1" stop-color="#01A9C6"/>
</linearGradient>
<linearGradient id="paint21_linear" x1="755.785" y1="400.087" x2="755.785" y2="413.414" gradientUnits="userSpaceOnUse">
<stop stop-color="#01DC9C"/>
<stop offset="1" stop-color="#01A9C6"/>
</linearGradient>
<linearGradient id="paint22_linear" x1="764.889" y1="382.74" x2="764.889" y2="395.392" gradientUnits="userSpaceOnUse">
<stop stop-color="#01DC9C"/>
<stop offset="1" stop-color="#01A9C6"/>
</linearGradient>
<linearGradient id="paint23_linear" x1="771.544" y1="363.309" x2="771.544" y2="375.553" gradientUnits="userSpaceOnUse">
<stop stop-color="#01DC9C"/>
<stop offset="1" stop-color="#01A9C6"/>
</linearGradient>
<linearGradient id="paint24_linear" x1="776.435" y1="344.088" x2="776.435" y2="356.688" gradientUnits="userSpaceOnUse">
<stop stop-color="#01DC9C"/>
<stop offset="1" stop-color="#01A9C6"/>
</linearGradient>
<linearGradient id="paint25_linear" x1="778.613" y1="318.779" x2="778.613" y2="337.157" gradientUnits="userSpaceOnUse">
<stop stop-color="#01DC9C"/>
<stop offset="1" stop-color="#01A9C6"/>
</linearGradient>
<linearGradient id="paint26_linear" x1="780.549" y1="298.076" x2="780.549" y2="320.538" gradientUnits="userSpaceOnUse">
<stop stop-color="#01DC9C"/>
<stop offset="1" stop-color="#01A9C6"/>
</linearGradient>
<linearGradient id="paint27_linear" x1="781.164" y1="280.433" x2="781.164" y2="300.945" gradientUnits="userSpaceOnUse">
<stop stop-color="#01DC9C"/>
<stop offset="1" stop-color="#01A9C6"/>
</linearGradient>
<linearGradient id="paint28_linear" x1="779.551" y1="258.454" x2="779.551" y2="281.457" gradientUnits="userSpaceOnUse">
<stop stop-color="#01DC9C"/>
<stop offset="1" stop-color="#01A9C6"/>
</linearGradient>
<linearGradient id="paint29_linear" x1="781.91" y1="241.026" x2="781.91" y2="262.602" gradientUnits="userSpaceOnUse">
<stop stop-color="#01DC9C"/>
<stop offset="1" stop-color="#01A9C6"/>
</linearGradient>
<linearGradient id="paint30_linear" x1="781.495" y1="221.706" x2="781.495" y2="244.287" gradientUnits="userSpaceOnUse">
<stop stop-color="#01DC9C"/>
<stop offset="1" stop-color="#01A9C6"/>
</linearGradient>
<linearGradient id="paint31_linear" x1="786.547" y1="197.974" x2="786.547" y2="228.204" gradientUnits="userSpaceOnUse">
<stop stop-color="#01DC9C"/>
<stop offset="1" stop-color="#01A9C6"/>
</linearGradient>
<linearGradient id="paint32_linear" x1="796.866" y1="180.306" x2="796.866" y2="202.317" gradientUnits="userSpaceOnUse">
<stop stop-color="#01DC9C"/>
<stop offset="1" stop-color="#01A9C6"/>
</linearGradient>
<linearGradient id="paint33_linear" x1="805.712" y1="168.467" x2="805.712" y2="189.811" gradientUnits="userSpaceOnUse">
<stop stop-color="#01DC9C"/>
<stop offset="1" stop-color="#01A9C6"/>
</linearGradient>
<linearGradient id="paint34_linear" x1="265.702" y1="212.258" x2="265.702" y2="320.524" gradientUnits="userSpaceOnUse">
<stop stop-color="#01DC9C"/>
<stop offset="1" stop-color="#01A9C6"/>
</linearGradient>
<linearGradient id="paint35_linear" x1="265.701" y1="196.791" x2="265.701" y2="335.99" gradientUnits="userSpaceOnUse">
<stop stop-color="#01DC9C"/>
<stop offset="1" stop-color="#01A9C6"/>
</linearGradient>
<linearGradient id="paint36_linear" x1="564.895" y1="300.847" x2="564.895" y2="324.75" gradientUnits="userSpaceOnUse">
<stop stop-color="#01DC9C"/>
<stop offset="1" stop-color="#01A9C6"/>
</linearGradient>
<linearGradient id="paint37_linear" x1="381.371" y1="263.93" x2="381.371" y2="274.454" gradientUnits="userSpaceOnUse">
<stop stop-color="#01DC9C"/>
<stop offset="1" stop-color="#01A9C6"/>
</linearGradient>
<linearGradient id="paint38_linear" x1="396.137" y1="263.93" x2="396.137" y2="274.454" gradientUnits="userSpaceOnUse">
<stop stop-color="#01DC9C"/>
<stop offset="1" stop-color="#01A9C6"/>
</linearGradient>
<linearGradient id="paint39_linear" x1="410.904" y1="263.93" x2="410.904" y2="274.454" gradientUnits="userSpaceOnUse">
<stop stop-color="#01DC9C"/>
<stop offset="1" stop-color="#01A9C6"/>
</linearGradient>
<linearGradient id="paint40_linear" x1="425.67" y1="263.93" x2="425.67" y2="274.454" gradientUnits="userSpaceOnUse">
<stop stop-color="#01DC9C"/>
<stop offset="1" stop-color="#01A9C6"/>
</linearGradient>
<linearGradient id="paint41_linear" x1="440.436" y1="263.93" x2="440.436" y2="274.454" gradientUnits="userSpaceOnUse">
<stop stop-color="#01DC9C"/>
<stop offset="1" stop-color="#01A9C6"/>
</linearGradient>
<linearGradient id="paint42_linear" x1="455.202" y1="263.93" x2="455.202" y2="274.454" gradientUnits="userSpaceOnUse">
<stop stop-color="#01DC9C"/>
<stop offset="1" stop-color="#01A9C6"/>
</linearGradient>
<linearGradient id="paint43_linear" x1="469.969" y1="263.93" x2="469.969" y2="274.454" gradientUnits="userSpaceOnUse">
<stop stop-color="#01DC9C"/>
<stop offset="1" stop-color="#01A9C6"/>
</linearGradient>
<linearGradient id="paint44_linear" x1="484.735" y1="263.93" x2="484.735" y2="274.454" gradientUnits="userSpaceOnUse">
<stop stop-color="#01DC9C"/>
<stop offset="1" stop-color="#01A9C6"/>
</linearGradient>
<linearGradient id="paint45_linear" x1="499.501" y1="263.93" x2="499.501" y2="274.454" gradientUnits="userSpaceOnUse">
<stop stop-color="#01DC9C"/>
<stop offset="1" stop-color="#01A9C6"/>
</linearGradient>
<linearGradient id="paint46_linear" x1="514.268" y1="263.93" x2="514.268" y2="274.454" gradientUnits="userSpaceOnUse">
<stop stop-color="#01DC9C"/>
<stop offset="1" stop-color="#01A9C6"/>
</linearGradient>
<linearGradient id="paint47_linear" x1="529.033" y1="263.93" x2="529.033" y2="274.454" gradientUnits="userSpaceOnUse">
<stop stop-color="#01DC9C"/>
<stop offset="1" stop-color="#01A9C6"/>
</linearGradient>
<linearGradient id="paint48_linear" x1="540.446" y1="430.548" x2="648.029" y2="430.548" gradientUnits="userSpaceOnUse">
<stop stop-color="#808080" stop-opacity="0.25"/>
<stop offset="0.54" stop-color="#808080" stop-opacity="0.12"/>
<stop offset="1" stop-color="#808080" stop-opacity="0.1"/>
</linearGradient>
<linearGradient id="paint49_linear" x1="617.221" y1="339.084" x2="617.221" y2="388.982" gradientUnits="userSpaceOnUse">
<stop stop-color="#01DC9C"/>
<stop offset="1" stop-color="#01A9C6"/>
</linearGradient>
<linearGradient id="paint50_linear" x1="583.763" y1="330.053" x2="583.763" y2="356.145" gradientUnits="userSpaceOnUse">
<stop stop-color="#01DC9C"/>
<stop offset="1" stop-color="#01A9C6"/>
</linearGradient>
<linearGradient id="paint51_linear" x1="638.458" y1="357.952" x2="638.458" y2="401.749" gradientUnits="userSpaceOnUse">
<stop stop-color="#01DC9C"/>
<stop offset="1" stop-color="#01A9C6"/>
</linearGradient>
<clipPath id="clip0">
<rect width="820" height="566" fill="white"/>
</clipPath>
</defs>
</svg>
